<svg width="24" height="23" viewBox="0 0 24 23" fill="none" xmlns="http://www.w3.org/2000/svg">
<path d="M22.5 22.033C22.3445 22.033 22.1987 22.0038 22.0625 21.9455C21.9264 21.8872 21.8 21.7997 21.6834 21.683L19 18.9997H7.33337C6.69171 18.9997 6.1424 18.7712 5.68546 18.3143C5.22851 17.8573 5.00004 17.308 5.00004 16.6663V15.4997H17.8334C18.475 15.4997 19.0243 15.2712 19.4813 14.8143C19.9382 14.3573 20.1667 13.808 20.1667 13.1663V4.99967H21.3334C21.975 4.99967 22.5243 5.22815 22.9813 5.68509C23.4382 6.14204 23.6667 6.69134 23.6667 7.33301V20.8372C23.6667 21.1872 23.55 21.474 23.3167 21.6976C23.0834 21.9212 22.8112 22.033 22.5 22.033ZM2.66671 12.2038L4.03754 10.833H15.5V2.66634H2.66671V12.2038ZM1.50004 16.1997C1.18893 16.1997 0.916707 16.0879 0.683374 15.8643C0.450041 15.6406 0.333374 15.3538 0.333374 15.0038V2.66634C0.333374 2.02467 0.561846 1.47537 1.01879 1.01842C1.47574 0.56148 2.02504 0.333008 2.66671 0.333008H15.5C16.1417 0.333008 16.691 0.56148 17.148 1.01842C17.6049 1.47537 17.8334 2.02467 17.8334 2.66634V10.833C17.8334 11.4747 17.6049 12.024 17.148 12.4809C16.691 12.9379 16.1417 13.1663 15.5 13.1663H5.00004L2.31671 15.8497C2.20004 15.9663 2.07365 16.0538 1.93754 16.1122C1.80143 16.1705 1.6556 16.1997 1.50004 16.1997Z" fill="#828282"/>
</svg> 